<svg width="48" height="48" viewBox="0 0 48 48" fill="none" xmlns="http://www.w3.org/2000/svg">
<path d="M23.9961 3.99805C35.041 3.99805 43.995 12.9512 43.9951 23.9961C43.9951 35.0411 35.0411 43.9951 23.9961 43.9951C12.9512 43.995 3.99707 35.041 3.99707 23.9961C3.9972 12.9513 12.9513 3.99816 23.9961 3.99805ZM27.8457 14.498C27.6138 14.901 27.3552 15.447 27.1748 15.876C25.2149 15.59 23.2688 15.59 21.3359 15.876C21.1556 15.4471 20.8851 14.901 20.666 14.498C18.8105 14.8101 17.0452 15.3688 15.3945 16.1357C12.057 21.1017 11.1545 25.9505 11.6055 30.7344C13.822 32.3594 15.9617 33.348 18.0635 33.998C18.5789 33.2961 19.0429 32.5419 19.4424 31.749C18.6821 31.463 17.9605 31.1113 17.2646 30.6953C17.4449 30.5655 17.6256 30.4222 17.793 30.2793C21.9939 32.2162 26.544 32.2163 30.6934 30.2793C30.8738 30.4223 31.0413 30.5654 31.2217 30.6953C30.5258 31.1113 29.8043 31.463 29.0439 31.749C29.4434 32.5418 29.9075 33.2961 30.4229 33.998C32.5233 33.348 34.6751 32.3593 36.8799 30.7344C37.4339 25.1966 36.0027 20.3867 33.1162 16.1357C31.454 15.3688 29.6883 14.8101 27.8457 14.498ZM20.0215 22.6357C21.2972 22.6357 22.3412 23.793 22.3154 25.21C22.3152 26.6268 21.2971 27.7832 20.0215 27.7832C18.7589 27.7829 17.7287 26.6266 17.7285 25.21C17.7285 23.7932 18.733 22.636 20.0215 22.6357ZM28.4902 22.6357C29.7658 22.636 30.809 23.7932 30.7832 25.21C30.783 26.6266 29.7785 27.7829 28.4902 27.7832C27.2274 27.7832 26.1945 26.6268 26.1943 25.21C26.1943 23.793 27.2015 22.6357 28.4902 22.6357Z" fill="white"/>
</svg>
