<svg width="224" height="736" viewBox="0 0 224 736" fill="none" xmlns="http://www.w3.org/2000/svg">
<g clip-path="url(#clip0_107_2318)">
<rect x="0.5" y="608.5" width="31" height="31" fill="#1E1E1E" stroke="#272727"/>
<rect x="0.5" y="640.5" width="31" height="31" fill="#1E1E1E" stroke="#272727"/>
<rect x="0.5" y="672.5" width="31" height="31" fill="#1E1E1E" stroke="#272727"/>
<rect x="0.5" y="384.5" width="31" height="31" fill="#1E1E1E" stroke="#272727"/>
<rect x="0.5" y="192.5" width="31" height="31" fill="#1E1E1E" stroke="#272727"/>
<rect x="0.5" y="32.5" width="31" height="31" fill="#1E1E1E" stroke="#272727"/>
<rect x="32.5" y="352.5" width="31" height="31" fill="#1E1E1E" stroke="#272727"/>
<rect x="32.5" y="0.5" width="31" height="31" fill="#1E1E1E" stroke="#272727"/>
<rect x="128.5" y="352.5" width="31" height="31" fill="#1E1E1E" stroke="#272727"/>
<rect x="64.5" y="352.5" width="31" height="31" fill="#1E1E1E" stroke="#272727"/>
<rect x="64.5" y="0.5" width="31" height="31" fill="#1E1E1E" stroke="#272727"/>
<rect x="160.5" y="352.5" width="31" height="31" fill="#1E1E1E" stroke="#272727"/>
<rect x="96.5" y="384.5" width="31" height="31" fill="#1E1E1E" stroke="#272727"/>
<rect x="96.5" y="192.5" width="31" height="31" fill="#1E1E1E" stroke="#272727"/>
<rect x="96.5" y="32.5" width="31" height="31" fill="#1E1E1E" stroke="#272727"/>
<rect x="192.5" y="384.5" width="31" height="31" fill="#1E1E1E" stroke="#272727"/>
<rect x="192.5" y="192.5" width="31" height="31" fill="#1E1E1E" stroke="#272727"/>
<rect x="128.5" y="64.5" width="31" height="31" fill="#1E1E1E" stroke="#272727"/>
<rect x="0.5" y="416.5" width="31" height="31" fill="#1E1E1E" stroke="#272727"/>
<rect x="0.5" y="224.5" width="31" height="31" fill="#1E1E1E" stroke="#272727"/>
<rect x="0.5" y="64.5" width="31" height="31" fill="#1E1E1E" stroke="#272727"/>
<rect x="96.5" y="416.5" width="31" height="31" fill="#1E1E1E" stroke="#272727"/>
<rect x="96.5" y="224.5" width="31" height="31" fill="#1E1E1E" stroke="#272727"/>
<rect x="96.5" y="64.5" width="31" height="31" fill="#1E1E1E" stroke="#272727"/>
<rect x="192.5" y="416.5" width="31" height="31" fill="#1E1E1E" stroke="#272727"/>
<rect x="192.5" y="224.5" width="31" height="31" fill="#1E1E1E" stroke="#272727"/>
<rect x="160.5" y="32.5" width="31" height="31" fill="#1E1E1E" stroke="#272727"/>
<rect x="0.5" y="448.5" width="31" height="31" fill="#1E1E1E" stroke="#272727"/>
<rect x="0.5" y="256.5" width="31" height="31" fill="#1E1E1E" stroke="#272727"/>
<rect x="0.5" y="96.5" width="31" height="31" fill="#1E1E1E" stroke="#272727"/>
<rect x="96.5" y="448.5" width="31" height="31" fill="#1E1E1E" stroke="#272727"/>
<rect x="96.5" y="256.5" width="31" height="31" fill="#1E1E1E" stroke="#272727"/>
<rect x="96.5" y="96.5" width="31" height="31" fill="#1E1E1E" stroke="#272727"/>
<rect x="192.5" y="448.5" width="31" height="31" fill="#1E1E1E" stroke="#272727"/>
<rect x="192.5" y="256.5" width="31" height="31" fill="#1E1E1E" stroke="#272727"/>
<rect x="192.5" y="0.5" width="31" height="31" fill="#1E1E1E" stroke="#272727"/>
<rect x="96.5" y="608.5" width="31" height="31" fill="#1E1E1E" stroke="#272727"/>
<rect x="96.5" y="640.5" width="31" height="31" fill="#1E1E1E" stroke="#272727"/>
<rect x="96.5" y="672.5" width="31" height="31" fill="#1E1E1E" stroke="#272727"/>
<rect x="0.5" y="704.5" width="31" height="31" fill="#1E1E1E" stroke="#272727"/>
<rect x="32.5" y="704.5" width="31" height="31" fill="#1E1E1E" stroke="#272727"/>
<rect x="64.5" y="704.5" width="31" height="31" fill="#1E1E1E" stroke="#272727"/>
<rect x="96.5" y="704.5" width="31" height="31" fill="#1E1E1E" stroke="#272727"/>
<rect x="128.5" y="704.5" width="31" height="31" fill="#1E1E1E" stroke="#272727"/>
<rect x="160.5" y="704.5" width="31" height="31" fill="#1E1E1E" stroke="#272727"/>
<rect x="192.5" y="704.5" width="31" height="31" fill="#1E1E1E" stroke="#272727"/>
<rect x="0.5" y="544.5" width="31" height="31" fill="#1E1E1E" stroke="#272727"/>
<rect x="32.5" y="544.5" width="31" height="31" fill="#1E1E1E" stroke="#272727"/>
<rect x="64.5" y="544.5" width="31" height="31" fill="#1E1E1E" stroke="#272727"/>
<rect x="96.5" y="544.5" width="31" height="31" fill="#1E1E1E" stroke="#272727"/>
<rect x="128.5" y="544.5" width="31" height="31" fill="#1E1E1E" stroke="#272727"/>
<rect x="160.5" y="544.5" width="31" height="31" fill="#1E1E1E" stroke="#272727"/>
<rect x="192.5" y="544.5" width="31" height="31" fill="#1E1E1E" stroke="#272727"/>
<rect x="0.5" y="480.5" width="31" height="31" fill="#1E1E1E" stroke="#272727"/>
<rect x="32.5" y="480.5" width="31" height="31" fill="#1E1E1E" stroke="#272727"/>
<rect x="64.5" y="480.5" width="31" height="31" fill="#1E1E1E" stroke="#272727"/>
<rect x="96.5" y="480.5" width="31" height="31" fill="#1E1E1E" stroke="#272727"/>
<rect x="128.5" y="480.5" width="31" height="31" fill="#1E1E1E" stroke="#272727"/>
<rect x="160.5" y="480.5" width="31" height="31" fill="#1E1E1E" stroke="#272727"/>
<rect x="192.5" y="480.5" width="31" height="31" fill="#1E1E1E" stroke="#272727"/>
<rect x="0.5" y="288.5" width="31" height="31" fill="#1E1E1E" stroke="#272727"/>
<rect x="32.5" y="288.5" width="31" height="31" fill="#1E1E1E" stroke="#272727"/>
<rect x="64.5" y="288.5" width="31" height="31" fill="#1E1E1E" stroke="#272727"/>
<rect x="96.5" y="288.5" width="31" height="31" fill="#1E1E1E" stroke="#272727"/>
<rect x="128.5" y="288.5" width="31" height="31" fill="#1E1E1E" stroke="#272727"/>
<rect x="160.5" y="288.5" width="31" height="31" fill="#1E1E1E" stroke="#272727"/>
<rect x="192.5" y="288.5" width="31" height="31" fill="#1E1E1E" stroke="#272727"/>
<rect x="0.5" y="128.5" width="31" height="31" fill="#1E1E1E" stroke="#272727"/>
<rect x="32.5" y="128.5" width="31" height="31" fill="#1E1E1E" stroke="#272727"/>
<rect x="64.5" y="128.5" width="31" height="31" fill="#1E1E1E" stroke="#272727"/>
<rect x="96.5" y="128.5" width="31" height="31" fill="#1E1E1E" stroke="#272727"/>
<rect x="128.5" y="128.5" width="31" height="31" fill="#1E1E1E" stroke="#272727"/>
<rect x="160.5" y="128.5" width="31" height="31" fill="#1E1E1E" stroke="#272727"/>
<rect x="192.5" y="128.5" width="31" height="31" fill="#1E1E1E" stroke="#272727"/>
</g>
<defs>
<clipPath id="clip0_107_2318">
<rect width="224" height="736" fill="white"/>
</clipPath>
</defs>
</svg>
