<svg width="18" height="18" viewBox="0 0 18 18" fill="none" xmlns="http://www.w3.org/2000/svg">
<path fill-rule="evenodd" clip-rule="evenodd" d="M9 1.5C4.85625 1.5 1.5 4.85625 1.5 9C1.5 12.3187 3.64687 15.1219 6.62813 16.1156C7.00313 16.1813 7.14375 15.9563 7.14375 15.7594C7.14375 15.5813 7.13438 14.9906 7.13438 14.3625C5.25 14.7094 4.7625 13.9031 4.6125 13.4812C4.52813 13.2656 4.1625 12.6 3.84375 12.4219C3.58125 12.2812 3.20625 11.9344 3.83438 11.925C4.425 11.9156 4.84688 12.4687 4.9875 12.6937C5.6625 13.8281 6.74063 13.5094 7.17188 13.3125C7.2375 12.825 7.43438 12.4969 7.65 12.3094C5.98125 12.1219 4.2375 11.475 4.2375 8.60625C4.2375 7.79062 4.52813 7.11562 5.00625 6.59062C4.93125 6.40312 4.66875 5.63437 5.08125 4.60312C5.08125 4.60312 5.70938 4.40625 7.14375 5.37188C7.74375 5.20313 8.38125 5.11875 9.01875 5.11875C9.65625 5.11875 10.2938 5.20313 10.8938 5.37188C12.3281 4.39688 12.9563 4.60312 12.9563 4.60312C13.3688 5.63437 13.1063 6.40312 13.0313 6.59062C13.5094 7.11562 13.8 7.78125 13.8 8.60625C13.8 11.4844 12.0469 12.1219 10.3781 12.3094C10.65 12.5437 10.8844 12.9938 10.8844 13.6969C10.8844 14.7 10.875 15.5063 10.875 15.7594C10.875 15.9563 11.0156 16.1906 11.3906 16.1156C12.8795 15.613 14.1733 14.6561 15.0898 13.3796C16.0064 12.1032 16.4996 10.5714 16.5 9C16.5 4.85625 13.1438 1.5 9 1.5Z" fill="white"/>
</svg>
