<svg width="48" height="48" viewBox="0 0 48 48" fill="none" xmlns="http://www.w3.org/2000/svg">
<path d="M24.0003 4.00049C35.0459 4.00066 44.0003 12.9549 44.0003 24.0005C44.0002 35.0459 35.0458 44.0003 24.0003 44.0005C12.9547 44.0005 4.00051 35.046 4.00034 24.0005C4.00034 12.9548 12.9546 4.00049 24.0003 4.00049ZM21.8089 25.1196L14.0003 34.0005H15.764L22.5912 26.2339L28.0443 34.0005H34.0003L25.9046 22.4692L33.3509 14.0005H31.5872L25.1185 21.353L19.9554 14.0005H14.0003L21.8089 25.1196ZM24.1927 22.4126L24.9818 23.52L31.5863 32.7622H28.8753L23.4876 25.2173L22.6956 24.1089L16.4007 15.3013H19.1107L24.1927 22.4126Z" fill="white"/>
</svg>
